PathFileType	4	(X/Y/Z)	C:/Users/beibeiliu/ov580/test_trc/User2\sequence.6_training_dense_right.trc
DataRate	CameraRate	NumFrames	NumMarkers	Units	OrigDataRate	OrigDataStartFrame	OrigNumFrames
120	120	16	19	mm	120	239	381
Frame#	Time	ThumbCMC			ThumbMCP			ThumbIP			ThumbTip			IndexMCP			IndexPIP			IndexTip			MiddleMCP			MiddlePIP			MiddleTip			RingMCP			RingPIP			RingTip			PinkyMCP			PinkyPIP			PinkyTip			BackHand1			BackHand2			BackHand3	
		X0	Y0	Z0	X1	Y1	Z1	X2	Y2	Z2	X3	Y3	Z3	X4	Y4	Z4	X5	Y5	Z5	X6	Y6	Z6	X7	Y7	Z7	X8	Y8	Z8	X9	Y9	Z9	X10	Y10	Z10	X11	Y11	Z11	X12	Y12	Z12	X13	Y13	Z13	X14	Y14	Z14	X15	Y15	Z15	X16	Y16	Z16	X17	Y17	Z17	X18	Y18	Z18	
238	1.98333	21.2093	7.94911	100.227	1.29366	-0.80627	66.7933	-11.0538	-4.32833	31.5515	-0.496506	-7.26434	4.67972	32.0149	67.4202	42.8158	21.1198	84.3884	20.1641	12.1786	84.7902	-11.8631	41.6382	47.0651	14.37	23.6868	18.8631	-6.57425	15.045	-7.98262	15.916	52.4886	25.9739	8.44047	36.1945	1.2156	-2.57457	27.784	-21.8575	29.1826	70.1148	7.67952	11.025	46.0088	-12.1883	6.10429	34.6094	-25.2765	34.5646	82.0767	30.3364	69.614	92.3338	13.9654	98.5193	56.2612	37.4219	96.5017	
239	1.99167	17.6061	8.44793	96.9199	1.0966	-1.30258	68.2512	-11.041	-5.33336	33.4803	0.632707	-5.46243	2.8647	28.3491	67.6763	46.9355	22.8613	83.4895	20.603	10.9133	82.8157	-11.0753	41.7825	46.5232	15.4407	25.5281	23.3316	-7.92044	11.068	-6.96918	16.265	52.0658	23.746	6.52513	33.9169	-1.1943	-1.00904	26.5709	-22.7203	28.8193	70.9812	7.41609	13.7662	45.4021	-11.8764	6.88795	36.5066	-28.6456	36.3201	78.9844	28.1934	66.4883	88.086	15.0064	97.9559	56.6955	33.1138	98.297	
240	2	21.8502	6.4903	98.1402	-3.24867	-1.09737	67.1173	-10.789	-4.61341	34.9597	-4.51468	-7.03709	5.58445	32.8431	67.9346	44.8361	24.5254	81.3495	15.4329	9.13252	70.4328	-8.33079	42.5114	45.9871	14.3842	23.8333	25.7605	-6.36373	9.5132	-6.75628	17.4563	51.8444	23.9128	9.7164	31.852	-0.106081	0.507225	23.3171	-19.1821	25.9166	68.7551	6.49199	10.1646	43.9026	-12.8404	7.34578	37.2023	-25.2738	36.0567	83.3533	24.6633	69.2372	93.3237	11.2562	100.992	57.5117	34.0384	97.4027	
241	2.00833	21.0849	7.44895	99.0683	-2.59591	-0.264088	66.7405	-9.95189	-1.71737	33.6394	0.515965	-3.39193	5.84495	33.2663	66.0038	46.8517	26.3727	77.9463	17.9896	7.73199	56.8958	-2.85266	42.5596	46.8138	17.3745	22.6086	27.2405	-5.3154	14.7701	-6.46969	13.6114	52.3934	24.4346	10.4583	32.3405	-0.4325	0.882427	26.3757	-20.9514	26.9303	69.2193	6.84458	14.1994	43.8558	-14.212	9.13734	38.0485	-26.3279	41.6657	83.1014	25.3051	71.0622	89.5629	10.1246	101.168	57.5203	33.266	97.3257	
242	2.01667	20.4726	7.48044	99.3771	0.816352	-0.0667972	69.2323	-13.2356	-2.22745	35.1722	-2.65037	-4.55252	10.2035	31.9094	65.1846	50.197	25.3729	73.7106	16.872	9.76576	44.8039	2.31097	44.3263	46.1494	19.3676	20.9003	26.3244	-3.66465	13.3635	-5.19007	14.2137	53.855	24.0736	13.474	31.3187	1.92981	1.83098	25.9763	-21.7311	31.7193	69.9178	6.49779	16.0241	41.9938	-16.4514	10.8141	35.6866	-25.1585	43.3085	79.7455	24.3655	69.745	91.4078	8.29493	101.877	57.5954	29.5449	102.409	
243	2.025	19.39	4.69461	104.338	-1.62261	-1.25857	71.5207	-11.2838	-1.37059	36.0901	-5.20723	-2.93178	8.24643	34.2723	67.4023	45.2073	23.3247	71.3034	16.4717	7.31376	41.0428	6.68346	45.5267	46.0113	21.8707	25.5214	27.6814	-4.39329	11.6589	-5.14341	16.379	51.1311	24.8431	13.4734	31.127	3.90881	3.18811	23.1682	-18.1185	29.3834	65.9808	7.96894	17.9688	40.5522	-13.5311	12.385	37.1546	-23.0803	39.6464	83.4815	23.3807	68.5017	90.0531	7.65765	100.923	56.6164	30.7901	102.485	
244	2.03333	20.1799	3.17993	105.215	0.678078	-1.08086	70.6737	-11.1219	-0.97137	34.4221	-4.68637	-2.53294	8.31658	35.1021	65.1704	47.5275	23.918	71.3872	17.2044	6.3386	39.516	9.03997	43.4146	48.0948	23.6453	25.7399	26.7038	-2.36296	11.3532	-5.05024	19.3541	53.7016	24.5361	12.9888	35.0467	1.78047	1.74559	24.1341	-19.737	33.8422	68.2212	6.47144	17.1652	41.1636	-13.5868	13.0609	38.3376	-25.324	45.5725	82.4328	23.8859	74.4902	90.3945	6.14322	102.598	55.626	31.7412	100.713	
245	2.04167	20.6272	3.19573	105.631	0.564032	-0.835522	71.0926	-9.57441	-1.86154	39.4158	-2.3628	-3.43458	10.6919	34.6365	64.7206	52.9192	23.7743	78.2481	24.8955	8.56591	47.2134	6.346	45.2223	47.4728	21.5072	25.5707	28.2447	-1.18139	11.9161	-4.11705	16.3934	55.7645	23.3153	13.965	32.3923	1.54775	4.73024	26.7067	-19.5152	30.5825	67.0603	4.35583	14.9518	42.4004	-14.346	14.5279	36.9265	-23.4889	45.1682	82.0795	23.7522	71.2203	90.6164	6.28218	104.891	55.8498	28.6555	104.093	
246	2.05	19.044	4.62888	104.153	-0.00635015	-0.868603	70.4559	-8.18543	-2.4458	38.237	-0.0798449	-1.99825	9.43598	34.8274	66.0997	55.0964	24.6503	83.75	26.1929	10.0615	66.3463	2.27434	44.3558	48.3057	20.9422	25.9802	26.6292	-1.87903	11.084	-4.21038	20.3572	51.5984	26.2989	16.5816	33.8083	-0.430132	4.59054	28.0464	-20.5597	33.2499	67.6554	6.14127	18.4033	44.201	-13.2537	13.1672	36.4595	-24.8669	47.7142	85.8131	23.5767	72.091	92.4486	6.56713	104.158	55.8577	29.139	105.33	
247	2.05833	19.0197	4.75978	103.74	-0.116605	-0.764155	69.8136	-9.24713	-2.27593	36.1924	-3.42015	-2.21957	7.59062	33.3792	67.7487	56.2053	26.3606	86.1122	27.2671	9.72052	78.0058	-1.74851	43.8327	48.1656	22.6645	24.8358	26.758	-1.14416	12.0506	-3.42844	18.6637	53.8649	23.0842	11.987	36.8686	-1.69062	5.02566	28.3459	-20.5686	35.3538	69.5684	4.40687	15.165	43.3385	-14.7166	14.8752	39.9098	-26.857	45.1195	85.9513	20.6902	74.5766	89.6588	7.85438	104.289	57.1874	31.7288	103.206	
248	2.06667	22.0477	3.69555	102.275	2.12213	-2.37694	71.0706	-7.32775	-1.94886	34.3187	-1.83761	-3.7046	5.854	34.8628	67.8126	52.5303	31.1657	84.5563	26.8343	17.8931	82.923	-3.4133	47.036	45.7273	17.9638	25.6874	25.6529	-1.91702	14.6268	-5.67189	18.6329	55.1475	23.2837	15.1686	36.4426	2.04182	4.12014	29.2207	-20.7433	35.3462	71.5309	4.62009	16.8033	46.1743	-16.4785	14.6155	41.8236	-28.6286	47.3611	86.8635	22.4292	73.8106	96.4407	6.99058	103.452	59.8389	29.0797	100.657	
249	2.075	26.0343	4.07508	101.904	4.77209	-0.622588	66.2137	-4.00834	-3.27033	34.5617	2.36604	-4.40186	3.49508	38.8935	68.1547	48.5891	31.2135	84.6586	23.648	20.2357	79.185	-6.11003	49.0208	45.6105	15.8025	28.2912	26.2202	-4.44547	17.7687	-8.9455	18.0052	55.4968	22.2342	10.6332	38.3748	-2.1098	2.95785	30.969	-21.9568	33.1701	69.9448	5.19753	16.2151	50.4366	-20.353	12.0967	44.1568	-26.9359	46.6041	85.9463	23.9988	72.9781	95.1784	6.91286	104.398	64.7344	29.4683	100.313	
250	2.08333	24.2595	6.46056	97.5894	3.74431	-3.05307	67.9591	-6.08737	-3.66778	32.1932	3.98313	-5.87395	5.72975	37.9988	69.0371	47.2754	35.6325	80.5761	20.731	18.4885	68.4973	-6.05678	50.0818	44.6287	18.384	32.1609	22.6036	-6.64443	20.2848	-9.15391	15.1754	62.7961	20.5295	12.6075	43.0327	-3.00941	0.624187	33.9775	-23.8658	32.5179	74.4744	3.0401	15.1815	49.8732	-21.0556	12.5726	46.5297	-27.9733	44.2347	88.0445	23.2106	73.7847	94.0445	9.31822	101.564	60.7445	32.083	97.8395	
251	2.09167	24.0825	6.56046	98.9024	8.09635	-3.05415	68.47	-2.42948	-5.34453	34.6065	5.20554	-4.77407	3.50017	38.6896	63.8121	47.4771	30.9094	75.7433	14.1527	17.3692	46.8778	-5.84483	49.694	45.3767	18.3166	32.5906	21.0889	-6.98931	19.8959	-9.41588	12.6318	61.398	21.2429	11.1385	45.5655	-4.71639	-0.884459	35.2393	-22.8138	31.0152	78.1669	2.09749	13.3	52.2501	-20.2742	12.6115	45.6498	-27.5445	44.174	88.9431	25.8443	70.6423	98.0075	8.88068	99.0262	62.244	31.5117	96.5759	
252	2.1	25.5727	5.69144	96.9023	6.86936	-1.19429	64.0177	-1.92972	-5.73879	31.2557	7.19474	-9.22248	6.19172	44.5501	61.059	40.3808	34.376	66.3438	7.10865	16.0832	34.8346	-1.72257	52.089	42.8979	14.6132	37.5722	20.1669	-9.60596	22.8386	-12.2393	15.1517	63.4499	19.6381	9.91551	47.066	-5.90794	-2.1051	36.5687	-25.0089	29.5668	76.8463	3.83421	13.9566	56.2237	-22.5391	10.2338	49.5644	-30.6472	41.7309	93.0583	24.465	69.5524	100.318	9.87938	99.5995	65.6004	31.5893	95.463	
253	2.10833	26.4752	8.80756	93.0896	10.3218	-3.63146	65.857	-1.4729	-6.96393	26.9521	7.1845	-10.3033	0.544822	40.8258	62.0482	35.1473	32.5446	61.9307	1.88807	17.9409	31.3198	-2.62523	50.9446	41.3536	12.0795	36.4203	13.2245	-11.0997	23.4276	-15.3734	13.9329	65.9144	17.1611	5.87744	48.3243	-6.21874	-2.31224	37.0843	-26.1005	27.7182	81.6179	0.198502	12.356	58.3063	-21.6451	8.60168	49.4032	-31.1823	40.2399	92.1817	24.8662	65.5753	98.1544	15.8584	99.7682	66.5221	34.0178	93.6224	
